<mxfile host="Electron" agent="Mozilla/5.0 (Windows NT 10.0; Win64; x64) AppleWebKit/537.36 (KHTML, like Gecko) draw.io/26.2.2 Chrome/134.0.6998.178 Electron/35.1.2 Safari/537.36" version="26.2.2">
  <diagram name="Page-1" id="3vcph6E7LWzcGqXoo5CB">
    <mxGraphModel dx="2806" dy="1336" grid="1" gridSize="10" guides="1" tooltips="1" connect="1" arrows="1" fold="1" page="1" pageScale="1" pageWidth="1100" pageHeight="850" math="0" shadow="0">
      <root>
        <mxCell id="0" />
        <mxCell id="1" parent="0" />
        <mxCell id="nOdrAEdHuYeGf6VZ5qro-1" value="&lt;div&gt;Course&lt;/div&gt;" style="swimlane;whiteSpace=wrap;html=1;fontSize=13;" parent="1" vertex="1">
          <mxGeometry x="240" y="120" width="280" height="280" as="geometry" />
        </mxCell>
        <mxCell id="nOdrAEdHuYeGf6VZ5qro-5" value="&lt;div&gt;private String courseName&lt;/div&gt;&lt;div&gt;private String instructor&lt;/div&gt;&lt;div&gt;private String roomNumber&lt;/div&gt;&lt;div&gt;private String schedule&lt;/div&gt;&lt;div&gt;private ArrayList&amp;lt;Student&amp;gt; roster&lt;/div&gt;&lt;div&gt;&lt;br&gt;&lt;/div&gt;&lt;div&gt;public Course(//all parameters but roster)&lt;/div&gt;&lt;div&gt;// setters for courseName, roomNumber, instructor, schedule&lt;/div&gt;&lt;div&gt;// getters for courseName, roomNumber, instructor, schedule, roster&lt;/div&gt;&lt;div&gt;public void setRoster(ArrayList&amp;lt;Student&amp;gt; roster)&lt;/div&gt;&lt;div&gt;public void addStudent(Student student)&lt;/div&gt;&lt;div&gt;public void printStudentRoster()&lt;/div&gt;&lt;div&gt;public void printDetails()&lt;/div&gt;" style="text;html=1;align=center;verticalAlign=middle;whiteSpace=wrap;rounded=0;fontSize=13;" parent="nOdrAEdHuYeGf6VZ5qro-1" vertex="1">
          <mxGeometry y="20" width="280" height="260" as="geometry" />
        </mxCell>
        <mxCell id="HZhzsOYkqm7w17uVYUnH-2" style="edgeStyle=orthogonalEdgeStyle;rounded=0;orthogonalLoop=1;jettySize=auto;html=1;exitX=0.5;exitY=0;exitDx=0;exitDy=0;entryX=0.5;entryY=1;entryDx=0;entryDy=0;" parent="1" source="nOdrAEdHuYeGf6VZ5qro-2" target="nOdrAEdHuYeGf6VZ5qro-16" edge="1">
          <mxGeometry relative="1" as="geometry" />
        </mxCell>
        <mxCell id="nOdrAEdHuYeGf6VZ5qro-2" value="Student (extends Person)" style="swimlane;whiteSpace=wrap;html=1;fontSize=13;" parent="1" vertex="1">
          <mxGeometry x="560" y="440" width="280" height="240" as="geometry" />
        </mxCell>
        <mxCell id="nOdrAEdHuYeGf6VZ5qro-6" value="&lt;div&gt;&lt;div&gt;public int studentID&lt;/div&gt;&lt;div&gt;private ArrayList&amp;lt;Assignment&amp;gt; assignments;&lt;/div&gt;&lt;div&gt;&lt;br&gt;&lt;/div&gt;&lt;div&gt;public Student(String name, String email, int studentID)&lt;/div&gt;&lt;/div&gt;&lt;div&gt;public void setID(int ID)&lt;/div&gt;&lt;div&gt;public int getID()&lt;/div&gt;&lt;div&gt;public void addAssignment(String assignmentName, int score)&lt;/div&gt;&lt;div&gt;public ArrayList&amp;lt;Assignment&amp;gt; getAssignments()&lt;/div&gt;&lt;div&gt;&lt;div&gt;&lt;div&gt;public void printDetails()&lt;/div&gt;&lt;div&gt;public void exportStudent()&lt;/div&gt;&lt;br&gt;&lt;/div&gt;&lt;/div&gt;" style="text;html=1;align=center;verticalAlign=middle;whiteSpace=wrap;rounded=0;fontSize=13;" parent="nOdrAEdHuYeGf6VZ5qro-2" vertex="1">
          <mxGeometry y="20" width="280" height="220" as="geometry" />
        </mxCell>
        <mxCell id="nOdrAEdHuYeGf6VZ5qro-3" value="Assignment" style="swimlane;whiteSpace=wrap;html=1;fontSize=13;" parent="1" vertex="1">
          <mxGeometry x="560" y="120" width="280" height="280" as="geometry" />
        </mxCell>
        <mxCell id="nOdrAEdHuYeGf6VZ5qro-7" value="&lt;div&gt;private String assignmentName&lt;/div&gt;&lt;div&gt;private int score&lt;/div&gt;&lt;div&gt;private static final int MAX_SCORE = 100&lt;/div&gt;&lt;div&gt;&lt;br&gt;&lt;/div&gt;&lt;div&gt;public Assignment(String assignmentName, int score)&lt;/div&gt;&lt;div&gt;public void setAssignmentName(string assignmentName)&lt;/div&gt;&lt;div&gt;public void setScore(int score)&lt;/div&gt;&lt;div&gt;public String getAssignmentName()&lt;/div&gt;&lt;div&gt;public int getMaxScore()&lt;/div&gt;&lt;div&gt;public int getScore()&lt;/div&gt;&lt;div&gt;public void printDetails()&lt;/div&gt;" style="text;html=1;align=center;verticalAlign=middle;whiteSpace=wrap;rounded=0;fontSize=13;" parent="nOdrAEdHuYeGf6VZ5qro-3" vertex="1">
          <mxGeometry y="20" width="280" height="260" as="geometry" />
        </mxCell>
        <mxCell id="nOdrAEdHuYeGf6VZ5qro-4" value="Grade" style="swimlane;whiteSpace=wrap;html=1;fontSize=13;" parent="1" vertex="1">
          <mxGeometry x="240" y="440" width="280" height="240" as="geometry" />
        </mxCell>
        <mxCell id="nOdrAEdHuYeGf6VZ5qro-8" value="&lt;div&gt;private int grade;&lt;/div&gt;&lt;div&gt;&lt;br&gt;&lt;/div&gt;&lt;div&gt;public void setGrade(int grade)&lt;/div&gt;&lt;div&gt;public int getGrade()&lt;/div&gt;&lt;div&gt;public String getLetterGrade(ArrayList&amp;lt;Assignment&amp;gt; assignments)&lt;/div&gt;&lt;div&gt;public void getClassGrades&lt;/div&gt;" style="text;html=1;align=center;verticalAlign=middle;whiteSpace=wrap;rounded=0;fontSize=13;" parent="nOdrAEdHuYeGf6VZ5qro-4" vertex="1">
          <mxGeometry y="20" width="280" height="220" as="geometry" />
        </mxCell>
        <mxCell id="HZhzsOYkqm7w17uVYUnH-1" style="edgeStyle=orthogonalEdgeStyle;rounded=0;orthogonalLoop=1;jettySize=auto;html=1;exitX=0.5;exitY=0;exitDx=0;exitDy=0;entryX=0.5;entryY=1;entryDx=0;entryDy=0;" parent="1" source="nOdrAEdHuYeGf6VZ5qro-12" target="nOdrAEdHuYeGf6VZ5qro-16" edge="1">
          <mxGeometry relative="1" as="geometry" />
        </mxCell>
        <mxCell id="nOdrAEdHuYeGf6VZ5qro-12" value="Instructor (extends Person)" style="swimlane;whiteSpace=wrap;html=1;fontSize=13;" parent="1" vertex="1">
          <mxGeometry x="880" y="440" width="280" height="240" as="geometry" />
        </mxCell>
        <mxCell id="nOdrAEdHuYeGf6VZ5qro-14" value="&lt;div&gt;private String courseName;&lt;/div&gt;&lt;div&gt;&lt;br&gt;&lt;/div&gt;&lt;div&gt;public Instructor(String name, String email, String courseName)&lt;/div&gt;&lt;div&gt;public String getCourseName()&lt;/div&gt;&lt;div&gt;public void setCourseName()&lt;/div&gt;&lt;div&gt;public void printDetails()&lt;/div&gt;" style="text;html=1;align=center;verticalAlign=middle;whiteSpace=wrap;rounded=0;fontSize=13;" parent="nOdrAEdHuYeGf6VZ5qro-12" vertex="1">
          <mxGeometry y="20" width="280" height="220" as="geometry" />
        </mxCell>
        <mxCell id="nOdrAEdHuYeGf6VZ5qro-15" value="Abstract Person" style="swimlane;whiteSpace=wrap;html=1;fontSize=13;" parent="1" vertex="1">
          <mxGeometry x="880" y="120" width="280" height="280" as="geometry" />
        </mxCell>
        <mxCell id="nOdrAEdHuYeGf6VZ5qro-16" value="&lt;div&gt;private String name&lt;/div&gt;&lt;div&gt;private String email&lt;/div&gt;&lt;div&gt;&lt;br&gt;&lt;/div&gt;&lt;div&gt;&lt;div&gt;public Person(String name, String email)&lt;/div&gt;&lt;div&gt;public void printDetails()&lt;/div&gt;&lt;/div&gt;&lt;div&gt;public void setName(String name)&lt;/div&gt;&lt;div&gt;public String getName()&lt;/div&gt;&lt;div&gt;public void setEmail(String email)&lt;/div&gt;&lt;div&gt;public String getEmail()&lt;/div&gt;" style="text;html=1;align=center;verticalAlign=middle;whiteSpace=wrap;rounded=0;fontSize=13;" parent="nOdrAEdHuYeGf6VZ5qro-15" vertex="1">
          <mxGeometry y="20" width="280" height="260" as="geometry" />
        </mxCell>
        <mxCell id="tD5Pd2lokjkD-a3uv8uw-2" value="Manager" style="swimlane;whiteSpace=wrap;html=1;fontSize=13;" parent="1" vertex="1">
          <mxGeometry x="-80" y="120" width="280" height="280" as="geometry" />
        </mxCell>
        <mxCell id="tD5Pd2lokjkD-a3uv8uw-3" value="&lt;div&gt;private ArrayList&amp;lt;Student&amp;gt; students = new ArrayList&amp;lt;Student&amp;gt;()&lt;/div&gt;&lt;div&gt;&lt;div&gt;private ArrayList&amp;lt;Instructor&amp;gt; instructors = new ArrayList&amp;lt;Instructor&amp;gt;()&lt;/div&gt;&lt;/div&gt;&lt;div&gt;&lt;div&gt;private ArrayList&amp;lt;Course&amp;gt; courses = new ArrayList&amp;lt;Course&amp;gt;()&lt;/div&gt;&lt;/div&gt;&lt;div&gt;&lt;br&gt;&lt;/div&gt;&lt;div&gt;// addStudent(), addInstructor(), addCourse(), addAssignment(), enrollStudent()&lt;/div&gt;&lt;div&gt;// getStudent(), getInstructor, getCourse, getStudentGrade()&lt;/div&gt;&lt;div&gt;// printStudents(), printStudent(), exportStudents(), printInstructors(), printCourses()&lt;/div&gt;" style="text;html=1;align=center;verticalAlign=middle;whiteSpace=wrap;rounded=0;fontSize=13;" parent="tD5Pd2lokjkD-a3uv8uw-2" vertex="1">
          <mxGeometry y="20" width="280" height="260" as="geometry" />
        </mxCell>
        <mxCell id="MBymVyT5kYlL0-EkoM3q-1" value="Explanation" style="swimlane;whiteSpace=wrap;html=1;" parent="1" vertex="1">
          <mxGeometry x="-80" y="696" width="1240" height="160" as="geometry" />
        </mxCell>
        <mxCell id="MBymVyT5kYlL0-EkoM3q-5" value="&lt;h1 style=&quot;margin-top: 0px;&quot;&gt;Polymorphism&lt;/h1&gt;&lt;p&gt;Student and Instructor have both inherited methods (IE printDetails()) but will be overridden to behave differently for each class&lt;/p&gt;" style="text;html=1;whiteSpace=wrap;overflow=hidden;rounded=0;spacingRight=3;spacingLeft=3;strokeColor=default;" parent="MBymVyT5kYlL0-EkoM3q-1" vertex="1">
          <mxGeometry y="20" width="200" height="140" as="geometry" />
        </mxCell>
        <mxCell id="MBymVyT5kYlL0-EkoM3q-6" value="&lt;h1 style=&quot;margin-top: 0px;&quot;&gt;Encapsulation&lt;/h1&gt;&lt;p&gt;Frequent use of setters and getters with private variables and public methods &lt;br&gt;&lt;/p&gt;" style="text;html=1;whiteSpace=wrap;overflow=hidden;rounded=0;spacingRight=3;spacingLeft=3;strokeColor=default;" parent="MBymVyT5kYlL0-EkoM3q-1" vertex="1">
          <mxGeometry x="200" y="20" width="200" height="140" as="geometry" />
        </mxCell>
        <mxCell id="MBymVyT5kYlL0-EkoM3q-8" value="&lt;h1 style=&quot;margin-top: 0px;&quot;&gt;Inheritance&lt;/h1&gt;&lt;p&gt;Student and Instructor both inherit Person&lt;/p&gt;" style="text;html=1;whiteSpace=wrap;overflow=hidden;rounded=0;spacingRight=3;spacingLeft=3;strokeColor=default;container=0;" parent="MBymVyT5kYlL0-EkoM3q-1" vertex="1">
          <mxGeometry x="400" y="20" width="200" height="140" as="geometry" />
        </mxCell>
        <mxCell id="MBymVyT5kYlL0-EkoM3q-9" value="&lt;h1 style=&quot;margin-top: 0px;&quot;&gt;Abstraction&lt;/h1&gt;&lt;p&gt;There is an abstract class Person and a console interface to hide complexity&lt;/p&gt;" style="text;html=1;whiteSpace=wrap;overflow=hidden;rounded=0;spacingRight=3;spacingLeft=3;strokeColor=default;" parent="MBymVyT5kYlL0-EkoM3q-1" vertex="1">
          <mxGeometry x="600" y="20" width="200" height="140" as="geometry" />
        </mxCell>
        <mxCell id="MBymVyT5kYlL0-EkoM3q-10" value="&lt;h1 style=&quot;margin-top: 0px;&quot;&gt;Description &amp;amp; Justification&lt;/h1&gt;&lt;p&gt;Using a manager class to handle all objects, as well as dynamic ArrayLists to contain them. An interface is used by the user, which itself makes use of the manager. This makes it simple to interact with all of the classes.&lt;/p&gt;" style="text;html=1;whiteSpace=wrap;overflow=hidden;rounded=0;spacingRight=0;spacingLeft=3;strokeColor=default;" parent="MBymVyT5kYlL0-EkoM3q-1" vertex="1">
          <mxGeometry x="800" y="20" width="440" height="140" as="geometry" />
        </mxCell>
        <mxCell id="q9Bpc6AfXaC4lpBn7Vv5-5" value="UserInterface" style="swimlane;whiteSpace=wrap;html=1;fontSize=13;startSize=23;" parent="1" vertex="1">
          <mxGeometry x="1750" y="460" width="280" height="260" as="geometry" />
        </mxCell>
        <mxCell id="q9Bpc6AfXaC4lpBn7Vv5-6" value="&lt;div&gt;private Manager manager&lt;/div&gt;&lt;div&gt;private Scanner scanner&lt;/div&gt;&lt;div&gt;&lt;br&gt;&lt;/div&gt;&lt;div&gt;public UserInterface(Manager manager)&lt;/div&gt;&lt;div&gt;public void start()&lt;/div&gt;&lt;div&gt;private void welcomeMessage()&lt;/div&gt;&lt;div&gt;private void mainMenu()&lt;/div&gt;&lt;div&gt;private void manageStudents()&lt;/div&gt;&lt;div&gt;private void manageAssignments()&lt;/div&gt;&lt;div&gt;private void manageInstructors()&lt;/div&gt;&lt;div&gt;private void manageCourses()&lt;/div&gt;&lt;div&gt;private void exportData()&lt;/div&gt;" style="text;html=1;align=center;verticalAlign=middle;whiteSpace=wrap;rounded=0;fontSize=13;" parent="q9Bpc6AfXaC4lpBn7Vv5-5" vertex="1">
          <mxGeometry y="10" width="280" height="240" as="geometry" />
        </mxCell>
        <mxCell id="KXKbuZsFlyIuabl0ZNwV-30" value="UserInterface " style="swimlane;fontStyle=1;childLayout=stackLayout;horizontal=1;startSize=26;horizontalStack=0;resizeParent=1;resizeParentMax=0;resizeLast=0;collapsible=1;marginBottom=0;" vertex="1" parent="1">
          <mxGeometry x="-390" y="120" width="290" height="736" as="geometry" />
        </mxCell>
        <mxCell id="KXKbuZsFlyIuabl0ZNwV-31" value="- private Manager manager" style="text;strokeColor=none;fillColor=none;align=left;verticalAlign=top;spacingLeft=4;spacingRight=4;overflow=hidden;rotatable=0;points=[[0,0.5],[1,0.5]];portConstraint=eastwest;" vertex="1" parent="KXKbuZsFlyIuabl0ZNwV-30">
          <mxGeometry y="26" width="290" height="26" as="geometry" />
        </mxCell>
        <mxCell id="KXKbuZsFlyIuabl0ZNwV-32" value="- private Scanner scanner" style="text;strokeColor=none;fillColor=none;align=left;verticalAlign=top;spacingLeft=4;spacingRight=4;overflow=hidden;rotatable=0;points=[[0,0.5],[1,0.5]];portConstraint=eastwest;" vertex="1" parent="KXKbuZsFlyIuabl0ZNwV-30">
          <mxGeometry y="52" width="290" height="26" as="geometry" />
        </mxCell>
        <mxCell id="KXKbuZsFlyIuabl0ZNwV-33" value="- static final DateTimeFormatter FORMATTER" style="text;strokeColor=none;fillColor=none;align=left;verticalAlign=top;spacingLeft=4;spacingRight=4;overflow=hidden;rotatable=0;points=[[0,0.5],[1,0.5]];portConstraint=eastwest;" vertex="1" parent="KXKbuZsFlyIuabl0ZNwV-30">
          <mxGeometry y="78" width="290" height="26" as="geometry" />
        </mxCell>
        <mxCell id="KXKbuZsFlyIuabl0ZNwV-34" value="" style="line;strokeWidth=1;fillColor=none;align=left;verticalAlign=middle;spacingTop=-1;spacingLeft=3;spacingRight=3;rotatable=0;labelPosition=right;points=[];portConstraint=eastwest;" vertex="1" parent="KXKbuZsFlyIuabl0ZNwV-30">
          <mxGeometry y="104" width="290" height="8" as="geometry" />
        </mxCell>
        <mxCell id="KXKbuZsFlyIuabl0ZNwV-35" value="+ public void UserInterface(manager: Manager)" style="text;strokeColor=none;fillColor=none;align=left;verticalAlign=top;spacingLeft=4;spacingRight=4;overflow=hidden;rotatable=0;points=[[0,0.5],[1,0.5]];portConstraint=eastwest;" vertex="1" parent="KXKbuZsFlyIuabl0ZNwV-30">
          <mxGeometry y="112" width="290" height="26" as="geometry" />
        </mxCell>
        <mxCell id="KXKbuZsFlyIuabl0ZNwV-36" value="+ public void startApp()" style="text;strokeColor=none;fillColor=none;align=left;verticalAlign=top;spacingLeft=4;spacingRight=4;overflow=hidden;rotatable=0;points=[[0,0.5],[1,0.5]];portConstraint=eastwest;" vertex="1" parent="KXKbuZsFlyIuabl0ZNwV-30">
          <mxGeometry y="138" width="290" height="26" as="geometry" />
        </mxCell>
        <mxCell id="KXKbuZsFlyIuabl0ZNwV-37" value="+ public void welcomeMessage()" style="text;strokeColor=none;fillColor=none;align=left;verticalAlign=top;spacingLeft=4;spacingRight=4;overflow=hidden;rotatable=0;points=[[0,0.5],[1,0.5]];portConstraint=eastwest;" vertex="1" parent="KXKbuZsFlyIuabl0ZNwV-30">
          <mxGeometry y="164" width="290" height="26" as="geometry" />
        </mxCell>
        <mxCell id="KXKbuZsFlyIuabl0ZNwV-38" value="+ public void instructorMainMenu()" style="text;strokeColor=none;fillColor=none;align=left;verticalAlign=top;spacingLeft=4;spacingRight=4;overflow=hidden;rotatable=0;points=[[0,0.5],[1,0.5]];portConstraint=eastwest;" vertex="1" parent="KXKbuZsFlyIuabl0ZNwV-30">
          <mxGeometry y="190" width="290" height="26" as="geometry" />
        </mxCell>
        <mxCell id="KXKbuZsFlyIuabl0ZNwV-39" value="+ public void studentMainMenu()" style="text;strokeColor=none;fillColor=none;align=left;verticalAlign=top;spacingLeft=4;spacingRight=4;overflow=hidden;rotatable=0;points=[[0,0.5],[1,0.5]];portConstraint=eastwest;" vertex="1" parent="KXKbuZsFlyIuabl0ZNwV-30">
          <mxGeometry y="216" width="290" height="26" as="geometry" />
        </mxCell>
        <mxCell id="KXKbuZsFlyIuabl0ZNwV-40" value="+ public void manageStudents()" style="text;strokeColor=none;fillColor=none;align=left;verticalAlign=top;spacingLeft=4;spacingRight=4;overflow=hidden;rotatable=0;points=[[0,0.5],[1,0.5]];portConstraint=eastwest;" vertex="1" parent="KXKbuZsFlyIuabl0ZNwV-30">
          <mxGeometry y="242" width="290" height="26" as="geometry" />
        </mxCell>
        <mxCell id="KXKbuZsFlyIuabl0ZNwV-41" value="+ public void addNewStudent()" style="text;strokeColor=none;fillColor=none;align=left;verticalAlign=top;spacingLeft=4;spacingRight=4;overflow=hidden;rotatable=0;points=[[0,0.5],[1,0.5]];portConstraint=eastwest;" vertex="1" parent="KXKbuZsFlyIuabl0ZNwV-30">
          <mxGeometry y="268" width="290" height="26" as="geometry" />
        </mxCell>
        <mxCell id="KXKbuZsFlyIuabl0ZNwV-42" value="+ public void displayAllStudents()" style="text;strokeColor=none;fillColor=none;align=left;verticalAlign=top;spacingLeft=4;spacingRight=4;overflow=hidden;rotatable=0;points=[[0,0.5],[1,0.5]];portConstraint=eastwest;" vertex="1" parent="KXKbuZsFlyIuabl0ZNwV-30">
          <mxGeometry y="294" width="290" height="26" as="geometry" />
        </mxCell>
        <mxCell id="KXKbuZsFlyIuabl0ZNwV-43" value="+ public void manageAssignments()" style="text;strokeColor=none;fillColor=none;align=left;verticalAlign=top;spacingLeft=4;spacingRight=4;overflow=hidden;rotatable=0;points=[[0,0.5],[1,0.5]];portConstraint=eastwest;" vertex="1" parent="KXKbuZsFlyIuabl0ZNwV-30">
          <mxGeometry y="320" width="290" height="26" as="geometry" />
        </mxCell>
        <mxCell id="KXKbuZsFlyIuabl0ZNwV-44" value="+ public void addNewAssignment()" style="text;strokeColor=none;fillColor=none;align=left;verticalAlign=top;spacingLeft=4;spacingRight=4;overflow=hidden;rotatable=0;points=[[0,0.5],[1,0.5]];portConstraint=eastwest;" vertex="1" parent="KXKbuZsFlyIuabl0ZNwV-30">
          <mxGeometry y="346" width="290" height="26" as="geometry" />
        </mxCell>
        <mxCell id="KXKbuZsFlyIuabl0ZNwV-45" value="+ public void displayAllAssignments()" style="text;strokeColor=none;fillColor=none;align=left;verticalAlign=top;spacingLeft=4;spacingRight=4;overflow=hidden;rotatable=0;points=[[0,0.5],[1,0.5]];portConstraint=eastwest;" vertex="1" parent="KXKbuZsFlyIuabl0ZNwV-30">
          <mxGeometry y="372" width="290" height="26" as="geometry" />
        </mxCell>
        <mxCell id="KXKbuZsFlyIuabl0ZNwV-46" value="+ public void modifyAssignmentGrade()" style="text;strokeColor=none;fillColor=none;align=left;verticalAlign=top;spacingLeft=4;spacingRight=4;overflow=hidden;rotatable=0;points=[[0,0.5],[1,0.5]];portConstraint=eastwest;" vertex="1" parent="KXKbuZsFlyIuabl0ZNwV-30">
          <mxGeometry y="398" width="290" height="26" as="geometry" />
        </mxCell>
        <mxCell id="KXKbuZsFlyIuabl0ZNwV-47" value="+ public void manageInstructors()" style="text;strokeColor=none;fillColor=none;align=left;verticalAlign=top;spacingLeft=4;spacingRight=4;overflow=hidden;rotatable=0;points=[[0,0.5],[1,0.5]];portConstraint=eastwest;" vertex="1" parent="KXKbuZsFlyIuabl0ZNwV-30">
          <mxGeometry y="424" width="290" height="26" as="geometry" />
        </mxCell>
        <mxCell id="KXKbuZsFlyIuabl0ZNwV-48" value="+ public void addNewInstructor()" style="text;strokeColor=none;fillColor=none;align=left;verticalAlign=top;spacingLeft=4;spacingRight=4;overflow=hidden;rotatable=0;points=[[0,0.5],[1,0.5]];portConstraint=eastwest;" vertex="1" parent="KXKbuZsFlyIuabl0ZNwV-30">
          <mxGeometry y="450" width="290" height="26" as="geometry" />
        </mxCell>
        <mxCell id="KXKbuZsFlyIuabl0ZNwV-49" value="+ public void displayAllInstructors()" style="text;strokeColor=none;fillColor=none;align=left;verticalAlign=top;spacingLeft=4;spacingRight=4;overflow=hidden;rotatable=0;points=[[0,0.5],[1,0.5]];portConstraint=eastwest;" vertex="1" parent="KXKbuZsFlyIuabl0ZNwV-30">
          <mxGeometry y="476" width="290" height="26" as="geometry" />
        </mxCell>
        <mxCell id="KXKbuZsFlyIuabl0ZNwV-50" value="+ public void manageCourses()" style="text;strokeColor=none;fillColor=none;align=left;verticalAlign=top;spacingLeft=4;spacingRight=4;overflow=hidden;rotatable=0;points=[[0,0.5],[1,0.5]];portConstraint=eastwest;" vertex="1" parent="KXKbuZsFlyIuabl0ZNwV-30">
          <mxGeometry y="502" width="290" height="26" as="geometry" />
        </mxCell>
        <mxCell id="KXKbuZsFlyIuabl0ZNwV-51" value="+ public void addNewCourse()" style="text;strokeColor=none;fillColor=none;align=left;verticalAlign=top;spacingLeft=4;spacingRight=4;overflow=hidden;rotatable=0;points=[[0,0.5],[1,0.5]];portConstraint=eastwest;" vertex="1" parent="KXKbuZsFlyIuabl0ZNwV-30">
          <mxGeometry y="528" width="290" height="26" as="geometry" />
        </mxCell>
        <mxCell id="KXKbuZsFlyIuabl0ZNwV-52" value="+ public void displayAllCourses()" style="text;strokeColor=none;fillColor=none;align=left;verticalAlign=top;spacingLeft=4;spacingRight=4;overflow=hidden;rotatable=0;points=[[0,0.5],[1,0.5]];portConstraint=eastwest;" vertex="1" parent="KXKbuZsFlyIuabl0ZNwV-30">
          <mxGeometry y="554" width="290" height="26" as="geometry" />
        </mxCell>
        <mxCell id="KXKbuZsFlyIuabl0ZNwV-53" value="+ public void exportData()" style="text;strokeColor=none;fillColor=none;align=left;verticalAlign=top;spacingLeft=4;spacingRight=4;overflow=hidden;rotatable=0;points=[[0,0.5],[1,0.5]];portConstraint=eastwest;" vertex="1" parent="KXKbuZsFlyIuabl0ZNwV-30">
          <mxGeometry y="580" width="290" height="26" as="geometry" />
        </mxCell>
        <mxCell id="KXKbuZsFlyIuabl0ZNwV-54" value="+ public void exportStuGradeSummary()" style="text;strokeColor=none;fillColor=none;align=left;verticalAlign=top;spacingLeft=4;spacingRight=4;overflow=hidden;rotatable=0;points=[[0,0.5],[1,0.5]];portConstraint=eastwest;" vertex="1" parent="KXKbuZsFlyIuabl0ZNwV-30">
          <mxGeometry y="606" width="290" height="26" as="geometry" />
        </mxCell>
        <mxCell id="KXKbuZsFlyIuabl0ZNwV-55" value="+ public void viewGradeSummaryForStu()" style="text;strokeColor=none;fillColor=none;align=left;verticalAlign=top;spacingLeft=4;spacingRight=4;overflow=hidden;rotatable=0;points=[[0,0.5],[1,0.5]];portConstraint=eastwest;" vertex="1" parent="KXKbuZsFlyIuabl0ZNwV-30">
          <mxGeometry y="632" width="290" height="26" as="geometry" />
        </mxCell>
        <mxCell id="KXKbuZsFlyIuabl0ZNwV-56" value="+ public void modifyNameForStu()" style="text;strokeColor=none;fillColor=none;align=left;verticalAlign=top;spacingLeft=4;spacingRight=4;overflow=hidden;rotatable=0;points=[[0,0.5],[1,0.5]];portConstraint=eastwest;" vertex="1" parent="KXKbuZsFlyIuabl0ZNwV-30">
          <mxGeometry y="658" width="290" height="26" as="geometry" />
        </mxCell>
        <mxCell id="KXKbuZsFlyIuabl0ZNwV-57" value="+ public void modifyEmailForStu()" style="text;strokeColor=none;fillColor=none;align=left;verticalAlign=top;spacingLeft=4;spacingRight=4;overflow=hidden;rotatable=0;points=[[0,0.5],[1,0.5]];portConstraint=eastwest;" vertex="1" parent="KXKbuZsFlyIuabl0ZNwV-30">
          <mxGeometry y="684" width="290" height="26" as="geometry" />
        </mxCell>
        <mxCell id="KXKbuZsFlyIuabl0ZNwV-58" value="+ public char convertPercentToLetter(int percent)" style="text;strokeColor=none;fillColor=none;align=left;verticalAlign=top;spacingLeft=4;spacingRight=4;overflow=hidden;rotatable=0;points=[[0,0.5],[1,0.5]];portConstraint=eastwest;" vertex="1" parent="KXKbuZsFlyIuabl0ZNwV-30">
          <mxGeometry y="710" width="290" height="26" as="geometry" />
        </mxCell>
      </root>
    </mxGraphModel>
  </diagram>
</mxfile>
